<svg id="wave" style="transform:rotate(180deg); transition: 0.3s" viewBox="0 0 1440 490" version="1.1" xmlns="http://www.w3.org/2000/svg"><defs><linearGradient id="sw-gradient-0" x1="0" x2="0" y1="1" y2="0"><stop stop-color="rgba(65.827, 236.842, 255, 1)" offset="0%"></stop><stop stop-color="rgba(0, 255, 175.809, 1)" offset="100%"></stop></linearGradient></defs><path style="transform:translate(0, 0px); opacity:1" fill="url(#sw-gradient-0)" d="M0,441L40,400.2C80,359,160,278,240,269.5C320,261,400,327,480,343C560,359,640,327,720,285.8C800,245,880,196,960,147C1040,98,1120,49,1200,98C1280,147,1360,294,1440,310.3C1520,327,1600,212,1680,155.2C1760,98,1840,98,1920,122.5C2000,147,2080,196,2160,179.7C2240,163,2320,82,2400,65.3C2480,49,2560,98,2640,138.8C2720,180,2800,212,2880,261.3C2960,310,3040,376,3120,392C3200,408,3280,376,3360,359.3C3440,343,3520,343,3600,334.8C3680,327,3760,310,3840,310.3C3920,310,4000,327,4080,310.3C4160,294,4240,245,4320,204.2C4400,163,4480,131,4560,171.5C4640,212,4720,327,4800,359.3C4880,392,4960,343,5040,269.5C5120,196,5200,98,5280,73.5C5360,49,5440,98,5520,155.2C5600,212,5680,278,5720,310.3L5760,343L5760,490L5720,490C5680,490,5600,490,5520,490C5440,490,5360,490,5280,490C5200,490,5120,490,5040,490C4960,490,4880,490,4800,490C4720,490,4640,490,4560,490C4480,490,4400,490,4320,490C4240,490,4160,490,4080,490C4000,490,3920,490,3840,490C3760,490,3680,490,3600,490C3520,490,3440,490,3360,490C3280,490,3200,490,3120,490C3040,490,2960,490,2880,490C2800,490,2720,490,2640,490C2560,490,2480,490,2400,490C2320,490,2240,490,2160,490C2080,490,2000,490,1920,490C1840,490,1760,490,1680,490C1600,490,1520,490,1440,490C1360,490,1280,490,1200,490C1120,490,1040,490,960,490C880,490,800,490,720,490C640,490,560,490,480,490C400,490,320,490,240,490C160,490,80,490,40,490L0,490Z"></path></svg>